<?xml version="1.0" standalone="no"?><!DOCTYPE svg PUBLIC "-//W3C//DTD SVG 1.1//EN" "http://www.w3.org/Graphics/SVG/1.1/DTD/svg11.dtd"><svg class="icon" width="200px" height="200.00px" viewBox="0 0 1024 1024" version="1.1" xmlns="http://www.w3.org/2000/svg"><path fill="#1afa29" d="M393.9296 967.30631111c-241.64586667 0-359.07413333-56.512-359.07413333-173.024 0-81.83253333 122.016-135.59253333 245.3152-154.3072v-6.9728c-92.10666667-70.45653333-104.40106667-196.32533333-104.40106667-299.80906666 0-140.91413333 82.93333333-225.13173333 222.0128-225.13173334h7.33866667c139.07946667 0 222.01386667 84.2176 222.01386666 225.13173334 0 103.48373333-12.29333333 229.16906667-104.40106666 299.80906666v6.9728c123.2992 18.71466667 245.3152 72.2912 245.3152 154.3072 0 79.0816-64.95253333 173.024-374.11946667 173.024z m3.8528-790.8064c-102.016 0-153.75786667 52.84266667-153.75786667 156.8768 0 97.42933333 10.45866667 203.4816 88.62186667 253.20533334 9.90826667 6.23786667 15.7792 17.06346667 15.7792 28.8064v54.67733333c0 17.4304-13.21066667 32.1088-30.4576 33.94453333-129.1712 13.5776-214.85653333 63.30026667-214.85653333 90.272 0 69.54026667 97.7952 104.768 290.81813333 104.768 194.3072 0 305.86346667-38.1632 305.86346667-104.768 0-26.97173333-85.68533333-76.6944-214.85653334-90.272-17.4304-1.83466667-30.4576-16.51413333-30.4576-33.94453333v-54.67733333c0-11.744 6.0544-22.56853333 15.7792-28.80746667 77.97973333-49.72266667 88.62186667-155.95946667 88.62186667-253.20426667 0-104.03413333-51.74186667-156.8768-153.75786667-156.8768h-7.33866666z"  /><path fill="#1afa29" d="M924.92586667 757.77031111c-18.8992 0-34.128-15.22986667-34.128-34.128 0-26.0544-97.2448-89.5392-210.0864-101.4656-17.4304-1.83466667-30.64106667-16.51306667-30.64106667-33.94346666v-70.82453334c0-11.74293333 6.0544-22.56853333 15.7792-28.8064 88.25493333-56.14506667 97.7952-181.09653333 97.7952-232.288 0-117.7952-79.63093333-142.56533333-146.41813333-142.56533333-18.89813333 0-34.128-15.2288-34.128-34.128s15.22986667-34.12693333 34.128-34.12693333c132.4736 0 214.67413333 80.73173333 214.67413333 210.82026666 0 59.44853333-11.376 201.28-113.57546667 278.70933334v23.66933333c108.98773333 19.81546667 240.72746667 85.3184 240.72746667 164.94933333 0.18346667 18.89813333-15.2288 34.128-34.12693333 34.128z"  /></svg>